# xmcd CD database file
#
# Track frame offsets:
#	150
#	17115
#	32028
#	46840
#	73560
#	91313
#	118378
#	136285
#	169555
#	189233
#	204380
#	222210
#
# Disc length: 3182 seconds
#
# Revision: 0
# Processed by: cddbd v1.4PL0 Copyright (c) Steve Scherf et al.
# Submitted via: CDex 1.40Beta9
#
DISCID=a20c6c0c
DTITLE=Bill Baileys - Get on the Bus
DYEAR=1994
DGENRE=Blues
TTITLE0=Get on the Bus
TTITLE1=It's Only Loving
TTITLE2=Fat Cats Party
TTITLE3=Country Girl
TTITLE4=Ball and Chain
TTITLE5=Boogie Machine
TTITLE6=Bum
TTITLE7=Sweet Honey
TTITLE8=Dangerous
TTITLE9=Let Me In
TTITLE10=Shotgun Wedding
TTITLE11=Pining for the Fjords
EXTD=YEAR: 1994 ID3G: 0
EXTT0=
EXTT1=
EXTT2=
EXTT3=
EXTT4=
EXTT5=
EXTT6=
EXTT7=
EXTT8=
EXTT9=
EXTT10=
EXTT11=
PLAYORDER=
